<!DOCTYPE svg PUBLIC "-//W3C//DTD SVG 1.1//EN" "http://www.w3.org/Graphics/SVG/1.1/DTD/svg11.dtd">
<!-- Uploaded to: SVG Repo, www.svgrepo.com, Transformed by: SVG Repo Mixer Tools -->
<svg fill="#ffffff" width="800px" height="800px" viewBox="0 0 22 22" xmlns="http://www.w3.org/2000/svg" id="memory-calculator">
<g id="SVGRepo_bgCarrier" stroke-width="0"/>
<g id="SVGRepo_tracerCarrier" stroke-linecap="round" stroke-linejoin="round"/>
<g id="SVGRepo_iconCarrier">
<path d="M18,21H4V20H3V3H4V2H18V3H19V20H18ZM16,7V4H6V7ZM8,11V9H6V11ZM12,11V9H10V11ZM16,11V9H14V11ZM8,15V13H6V15ZM12,15V13H10V15ZM16,15V13H14V15ZM8,19V17H6V19ZM12,19V17H10V19ZM16,19V17H14V19Z"/>
</g>
</svg>